<?xml version="1.0" encoding="UTF-8" standalone="no"?>
<svg
   xmlns:dc="http://purl.org/dc/elements/1.1/"
   xmlns:cc="http://creativecommons.org/ns#"
   xmlns:rdf="http://www.w3.org/1999/02/22-rdf-syntax-ns#"
   xmlns:svg="http://www.w3.org/2000/svg"
   xmlns="http://www.w3.org/2000/svg"
   xmlns:sodipodi="http://sodipodi.sourceforge.net/DTD/sodipodi-0.dtd"
   xmlns:inkscape="http://www.inkscape.org/namespaces/inkscape"
   height="67px"
   id="Layer_1"
   style="enable-background:new 0 0 67 67;"
   version="1.1"
   viewBox="0 0 67 67"
   width="67px"
   xml:space="preserve"
   inkscape:version="0.92.2 5c3e80d, 2017-08-06"
   sodipodi:docname="facebook_circle_black.svg"><metadata
     id="metadata9"><rdf:RDF><cc:Work
         rdf:about=""><dc:format>image/svg+xml</dc:format><dc:type
           rdf:resource="http://purl.org/dc/dcmitype/StillImage" /></cc:Work></rdf:RDF></metadata><defs
     id="defs7" /><sodipodi:namedview
     pagecolor="#ffffff"
     bordercolor="#666666"
     borderopacity="1"
     objecttolerance="10"
     gridtolerance="10"
     guidetolerance="10"
     inkscape:pageopacity="0"
     inkscape:pageshadow="2"
     inkscape:window-width="1013"
     inkscape:window-height="1011"
     id="namedview5"
     showgrid="false"
     inkscape:zoom="3.5223881"
     inkscape:cx="-23.27966"
     inkscape:cy="33.5"
     inkscape:window-x="0"
     inkscape:window-y="27"
     inkscape:window-maximized="0"
     inkscape:current-layer="Layer_1" /><path
     d="m 27.629407,50.036102 6.744,0 0,-16.322 4.499,0 0.596,-5.624 -5.095,0 0.007,-2.816 c 0,-1.466 0.14,-2.253 2.244,-2.253 l 2.812,0 0,-5.625 -4.5,0 c -5.405,0 -7.307,2.729 -7.307,7.317 l 0,3.377 -3.369,0 0,5.625 3.369,0 0,16.321 z m 4.235,13.68 c -16.568,0 -30.0000002,-13.432 -30.0000002,-30 0,-16.569 13.4320002,-30.0000003 30.0000002,-30.0000003 16.568,0 30,13.4310003 30,30.0000003 0,16.568 -13.432,30 -30,30 z"
     style="clip-rule:evenodd;fill:#ffffff;fill-rule:evenodd;fill-opacity:1;stroke:#191970;stroke-opacity:1"
     id="path3"
     inkscape:connector-curvature="0"
     inkscape:export-xdpi="90"
     inkscape:export-ydpi="90" /></svg>